<svg xmlns="http://www.w3.org/2000/svg" viewBox="12 336 990 376"><path fill="#0f2d4b" d="M101.3 678.1c0 11.8-11.5 17.6-19.9 18.5L47.9 700c-4.7.5-12.8-6.6-12.8-12.9L34.9 367c0-9.9 8.3-18 18.4-16.9l186.6 20.5-129.3 43.2c-5.9 3-9.3 8.4-9.2 15.7v248.6Z"/><path fill="#2ea6aa" d="M253 681.9c-6.1.5-12.6-4.1-12.6-10.6l-.2-235.3c0-8.1-5.8-14.6-12.9-16.4l-52-4.6 118.2-39.1c4-1.3 7.1-3.3 10-1.9 2.6 1.3 6.5 4.7 6.5 9.4l-.4 284.9c0 6.4-9.4 9.4-13.2 9.8z"/><path fill="#06d6a0" d="M155.8 689.6c-5 .6-10.1-5.7-10-10.5l.5-91.7c0-15.8 16.8-23.1 29-21.2 15.9 2.5 21.1 15.9 21 31.8l-.5 82.5c0 2.6-2 4.8-4.5 5.1z"/><ellipse cx="170.9" cy="529.4" fill="#06d6a0" rx="23.9" ry="24.1"/><path fill="#0f2d4b" d="M831.3 453c16.3 6.9 20.2 19.8 17.9 33.4-2.1 12.5-13.8 23.4-27.7 23.6l-63.5.6V400.1l63.1.8c12.1.2 22.2 11 24.1 19.5 3.2 15-1.2 25.9-13.9 32.7Zm-19-8.3c8.4-.1 11.8-8.1 11.2-13.6-.7-6.5-5.5-11.6-12.9-11.5H781c-.7 10.1-1 17.1.6 25.6zm1.1 46.3c7.5 0 12.2-5.5 13-12.1.6-5.2-3.2-13.8-10.3-13.9l-34.4-.9c-1.8 9.9-1.3 18.1 0 26.8h31.8Zm-121.7-37.6c14.1 7.5 18.5 19.3 16.3 32.8-2.1 12.6-13.6 23.6-28.1 23.8l-63.4.6V399.9l62.7.6c11.9.1 21.9 9.1 24.9 19.2 3.4 11.9 1.4 23.5-12.4 33.6Zm-18.9-9.2c8-.2 10.8-10.1 9.3-15.5-1.4-5.2-6.4-9.1-12.9-9.1H640l.3 25.6 32.5-.9Zm-.5 46.9c8.4 0 13.6-7.2 13.1-14.1-.4-6.7-5.3-12.7-13.1-12.6h-32v26.5l32.1.2Zm-104.5-34.4c0 31.3-25.5 56.7-57 56.7s-57-25.4-57-56.7 25.5-56.7 57-56.7 57 25.4 57 56.7m-23.7-.2c0-22.4-16.2-36.2-35.7-35.2-18.5 1-31.7 16.8-31.1 36.5.6 19.6 15 34.7 33.6 34.6s33.3-14.7 33.3-35.9ZM990 400.4l-40.4 65-1.5 45-23-.5c.2-13.9.1-44.4.1-44.4l-41.8-65.1c8.5-.9 17.1-.6 25.8.6 8.8 14.8 16.7 28.7 27.5 43.7l27.7-43.9 25.7-.6Zm-576.9 90.1v20.2h-73l-.1-110.6 22.8-.1-.1 90.3zM649.5 650l-44.7-58.4-.5 22.5v8.9l-.2 26.6-25.1.4-44.7-58.1-.5 57.7h-42.2c-4.6.5-9.1.3-13.2-.6 26.1-5.6 43.9-28.9 42.9-55.6-1.9-25.8-19.5-45.5-44.1-50.8l55-.3 43.1 56.1.5-56h27.1l42.8 55.8.5-55.8h141.4c-5.9 7.7-10.9 15.6-14.9 25h-97.5v82.1l-25.7.4Zm223-63.9c-6.1-13.9-18.6-21.1-31.9-18.5-13.2 2.5-23 14.2-22.8 27.6s10.2 24.8 23.5 27c13.4 2.2 25.8-5.9 31.1-18.4l20.5 20.3c-11.5 17.8-31.1 27.7-52.7 25.7-25.8-2.4-46-22.6-49.4-46.7-3.7-26.4 11-50.6 35.1-59.8 24.8-9.5 52.8-.2 67.1 22.4l-20.4 20.5Zm-454-7.4c-10.8-13.6-29-15.3-41.2-4.8-12.6 10.8-12.7 30.1-.6 41.2 12.2 11.2 31 9.5 41.6-4.3 3.9 9.3 8 16.7 16 23.4-21.8 21.4-56.9 20.7-78.1-.3-21.4-21.3-21.8-55.4-.9-77.3C376 535 411.2 533.4 434 555c-7.1 6.8-12.4 14-15.7 23.8Z"/><path fill="#0f2d4b" d="M722.9 623.6h56.3v25.1h-38.7l-46.7-.1.1-65.9h79.3l.2 23.7-50.5.1zm235.3 25.8-29.1.6v-81.4l-15.7-.3c-3.8-9.8-9.1-17.3-16.4-25.8h92.9v25.8h-31.7z"/><ellipse cx="468.6" cy="594.8" fill="#06d6a0" rx="28.7" ry="28.5"/><ellipse cx="845.3" cy="595.2" fill="#06d6a0" rx="28.3" ry="28.1"/><path fill="#0f2d4b" stroke="#06d6a0" stroke-linecap="round" stroke-linejoin="round" stroke-width="13" d="M471 594.8h372.6"/></svg>