<svg xmlns="http://www.w3.org/2000/svg" viewBox="67 38 351 439"><path fill="#0f2d4b" d="M154.1 445.3c0 14.5-14.2 21.6-24.6 22.7L88 472.1c-5.8.6-15.9-8.1-15.9-15.8l-.3-392.2C71.8 52 82 42 94.6 43.4l231.2 25.1-160.1 53c-7.3 3.7-11.6 10.3-11.4 19.2v304.6Z"/><path fill="#2ea6aa" d="M342 449.9c-7.6.7-15.6-5.1-15.6-13l-.3-288.4c0-10-7.2-17.9-16-20.1l-64.4-5.7 146.4-47.9c4.9-1.6 8.7-4.1 12.4-2.3 3.3 1.6 8.1 5.8 8.1 11.6l-.5 349.1c0 7.8-11.7 11.6-16.4 12z"/><path fill="#06d6a0" d="M221.5 459.4c-6.2.7-12.5-7-12.4-12.9l.6-112.4c.1-19.3 20.8-28.3 36-25.9 19.7 3.1 26.2 19.5 26.1 39l-.6 101.1c0 3.2-2.4 5.9-5.6 6.2l-44 4.9Z"/><circle cx="240.2" cy="263.1" r="29.6" fill="#06d6a0"/></svg>