<svg xmlns="http://www.w3.org/2000/svg" viewBox="12 336 990 376"><path fill="#f4f7f7" d="M91.9 678c0 11.9-11.7 17.7-20.2 18.6l-34 3.4c-4.8.5-13-6.7-13-13l-.3-321.8c0-10 8.4-18.1 18.7-17l189.7 20.6-131.4 43.5c-6 3.1-9.5 8.5-9.3 15.8V678Z"/><path fill="#2ea6aa" d="M246.1 681.8c-6.2.5-12.8-4.2-12.8-10.7l-.2-236.6c0-8.2-5.9-14.7-13.1-16.5l-52.9-4.6 120.1-39.3c4-1.3 7.2-3.3 10.2-1.9s6.6 4.7 6.6 9.5l-.4 286.4c0 6.4-9.6 9.5-13.4 9.8l-44.1 3.8Z"/><path fill="#06d6a0" d="M147.3 689.5c-5.1.6-10.2-5.7-10.2-10.6l.5-92.2c0-15.9 17.1-23.2 29.5-21.3 16.1 2.5 21.5 16 21.4 32l-.5 82.9c0 2.6-2 4.8-4.6 5.1l-36.1 4Z"/><circle cx="162.6" cy="528.5" r="24.3" fill="#06d6a0"/><path fill="#f4f7f7" d="M825.2 453c16.3 6.9 20.2 19.8 17.9 33.4-2.1 12.5-13.8 23.4-27.7 23.6l-63.5.6V400.1l63.1.8c12.1.2 22.2 11 24.1 19.5 3.2 15-1.2 25.9-13.9 32.7Zm-19-8.3c8.4-.1 11.8-8.1 11.2-13.6-.7-6.5-5.5-11.6-12.9-11.5h-29.6c-.7 10.1-1 17.1.6 25.6zm1.2 46.3c7.5 0 12.2-5.5 13-12.1.6-5.2-3.2-13.8-10.3-13.9l-34.4-.9c-1.8 9.9-1.3 18.1 0 26.8h31.8Zm-121.7-37.6c14.1 7.5 18.5 19.3 16.3 32.8-2.1 12.6-13.6 23.6-28.1 23.8l-63.4.6V399.9l62.7.6c11.9.1 21.9 9.1 24.9 19.2 3.4 11.9 1.4 23.5-12.4 33.6Zm-19-9.2c8-.2 10.8-10.1 9.3-15.5-1.4-5.2-6.4-9.1-12.9-9.1h-29.2l.3 25.6 32.5-.9Zm-.5 46.9c8.4 0 13.6-7.2 13.1-14.1-.4-6.7-5.3-12.7-13.1-12.6h-32v26.5l32.1.2Zm-104.4-34.4c0 31.3-25.5 56.7-57 56.7s-57-25.4-57-56.7 25.5-56.7 57-56.7 57 25.4 57 56.7m-23.8-.2c0-22.4-16.2-36.2-35.7-35.2-18.5 1-31.7 16.8-31.1 36.5.6 19.6 15 34.7 33.6 34.6s33.3-14.7 33.3-35.9Zm445.9-56.1-40.4 65-1.5 45-23-.5c.2-13.9.1-44.4.1-44.4l-41.8-65.1c8.5-.9 17.1-.6 25.8.6 8.8 14.8 16.7 28.7 27.5 43.7l27.7-43.9 25.7-.6ZM407 490.5v20.2h-73l-.1-110.6 22.9-.1-.2 90.3zM643.4 650l-44.7-58.4-.5 22.5v8.9l-.2 26.6-25.1.4-44.7-58.1-.5 57.7h-42.2c-4.6.5-9.1.3-13.2-.6 26.1-5.6 43.9-28.9 42.9-55.6-1.9-25.8-19.5-45.5-44.1-50.8l55-.3 43.1 56.1.5-56h27.1l42.8 55.8.5-55.8h141.4c-5.9 7.7-10.9 15.6-14.9 25h-97.5v82.1l-25.7.4Zm223-63.9c-6.1-13.9-18.6-21.1-31.9-18.5-13.2 2.5-23 14.2-22.8 27.6s10.2 24.8 23.5 27c13.4 2.2 25.8-5.9 31.1-18.4l20.5 20.3c-11.5 17.8-31.1 27.7-52.7 25.7-25.8-2.4-46-22.6-49.4-46.7-3.7-26.4 11-50.6 35.1-59.8 24.8-9.5 52.8-.2 67.1 22.4l-20.4 20.5Zm-453.9-7.4c-10.8-13.6-29-15.3-41.2-4.8-12.6 10.8-12.7 30.1-.6 41.2 12.2 11.2 31 9.5 41.6-4.3 3.9 9.3 8 16.7 16 23.4-21.8 21.4-56.9 20.7-78.1-.3-21.4-21.3-21.8-55.4-.9-77.3C370 535 405.2 533.4 428 555c-7.1 6.8-12.4 14-15.7 23.8Z"/><path fill="#f4f7f7" d="M716.8 623.6h56.3v25.1h-38.7l-46.7-.1.1-65.9h79.3l.2 23.7-50.5.1zm235.4 25.8-29.1.6v-81.4l-15.7-.3c-3.8-9.8-9.1-17.3-16.4-25.8h92.9v25.8h-31.7z"/><ellipse cx="462.5" cy="594.8" fill="#06d6a0" rx="28.7" ry="28.5"/><ellipse cx="839.2" cy="595.2" fill="#06d6a0" rx="28.3" ry="28.1"/><path fill="#0f2d4b" stroke="#06d6a0" stroke-linecap="round" stroke-linejoin="round" stroke-width="13" d="M464.9 594.8h372.6"/></svg>