<svg xmlns="http://www.w3.org/2000/svg" viewBox="0 0 965.1 350"><path fill="#0f2d4b" d="M66.4 328.1c0 11.8-11.5 17.6-19.9 18.5L13 350c-4.7.5-12.8-6.6-12.8-12.9L0 17C0 7.1 8.3-1 18.4.1L205 20.6 75.7 63.8c-5.9 3-9.3 8.4-9.2 15.7v248.6Z"/><path fill="#2ea6aa" d="M218.1 331.9c-6.1.5-12.6-4.1-12.6-10.6L205.3 86c0-8.1-5.8-14.6-12.9-16.4l-52-4.6 118.2-39.1c4-1.3 7.1-3.3 10-1.9 2.6 1.3 6.5 4.7 6.5 9.4l-.4 284.9c0 6.4-9.4 9.4-13.2 9.8z"/><path fill="#06d6a0" d="M120.9 339.6c-5 .6-10.1-5.7-10-10.5l.5-91.7c0-15.8 16.8-23.1 29-21.2 15.9 2.5 21.1 15.9 21 31.8l-.5 82.5c0 2.6-2 4.8-4.5 5.1z"/><ellipse cx="136" cy="179.4" fill="#06d6a0" rx="23.9" ry="24.1"/><path fill="#0f2d4b" d="M806.4 97c16.3 6.9 20.2 19.8 17.9 33.4-2.1 12.5-13.8 23.4-27.7 23.6l-63.5.6V44l63.1.8c12.1.2 22.2 11 24.1 19.5 3.2 15-1.2 25.9-13.9 32.7m-19-8.3c8.4-.1 11.8-8.1 11.2-13.6-.7-6.5-5.5-11.6-12.9-11.5h-29.6c-.7 10.1-1 17.1.6 25.6zm1.2 46.3c7.5 0 12.2-5.5 13-12.1.6-5.2-3.2-13.8-10.3-13.9l-34.4-.9c-1.8 9.9-1.3 18.1 0 26.8h31.8ZM666.8 97.4c14.1 7.5 18.5 19.3 16.3 32.8-2.1 12.6-13.6 23.6-28.1 23.8l-63.4.6V44l62.7.6c11.9.1 21.9 9.1 24.9 19.2 3.4 11.9 1.4 23.5-12.4 33.6m-18.9-9.2c8-.2 10.8-10.1 9.3-15.5-1.4-5.2-6.4-9.1-12.9-9.1h-29.2l.3 25.6 32.5-.9Zm-.5 46.9c8.4 0 13.6-7.2 13.1-14.1-.4-6.7-5.3-12.7-13.1-12.6h-32v26.5l32.1.2ZM543 98.8c0 32.4-25.5 58.7-57 58.7s-57-26.3-57-58.7 25.5-58.7 57-58.7 57 26.3 57 58.7m-23.8-.3c0-23.2-16.2-37.4-35.7-36.4-18.5 1-31.7 17.4-31.1 37.8.6 20.3 15 35.9 33.6 35.8s33.3-15.2 33.3-37.1Zm445.9-54.8-40.8 65.8-1 45h-22.7c0-14.5-.4-45.8-.4-45l-42.3-65.8c8.4.2 16.4.4 25.8.7 8.8 14.8 17.1 29.4 28 44.4l28-44.4 25.3-.7Zm-576.9 90.8v20.2h-73l-.1-110.6L338 44l-.2 90.3zM624.6 314l-44.7-58.4-.5 22.5v8.9l-.2 27h-25.1l-44.7-58.1-.5 57.7h-42.2c-4.6.5-9.1.3-13.2-.6 26.1-5.6 43.9-28.9 42.9-55.6-1.9-25.8-19.5-45.5-44.1-50.8l55-.3 43.1 56.1.5-56H578l42.8 55.8.5-55.8h141.4c-5.9 7.7-10.9 15.6-14.9 25h-97.5v82.5h-25.7Zm223-63.9c-6.1-13.9-18.6-21.1-31.9-18.5-13.2 2.5-23 14.2-22.8 27.6s10.2 24.8 23.5 27c13.4 2.2 25.8-5.9 31.1-18.4l20.5 20.3c-11.5 17.8-31.1 27.7-52.7 25.7-25.8-2.4-46-22.6-49.4-46.7-3.7-26.4 11-50.6 35.1-59.8 24.8-9.5 52.8-.2 67.1 22.4l-20.4 20.5Zm-453.9-7.4c-10.8-13.6-29-15.3-41.2-4.8-12.6 10.8-12.7 30.1-.6 41.2 12.2 11.2 31 9.5 41.6-4.3 3.9 9.3 8 16.7 16 23.4-21.8 21.4-56.9 20.7-78.1-.3-21.4-21.3-21.8-55.4-.9-77.3 20.7-21.6 55.9-23.2 78.7-1.6-7.1 6.8-12.4 14-15.7 23.8Z"/><path fill="#0f2d4b" d="M698 287.6h56.3V314h-85.4l.1-67.3h79.3l.2 23.7-50.5.1zm235.4 25.8-29.1.6v-81.4l-15.7-.3c-3.8-9.8-9.1-17.3-16.4-25.8h92.9v25.8h-31.7z"/><ellipse cx="443.7" cy="258.8" fill="#06d6a0" rx="28.7" ry="28.5"/><ellipse cx="820.4" cy="259.2" fill="#06d6a0" rx="28.3" ry="28.1"/><path fill="#0f2d4b" stroke="#06d6a0" stroke-linecap="round" stroke-linejoin="round" stroke-width="13" d="M436.1 258.8h372.6"/></svg>