<svg xmlns="http://www.w3.org/2000/svg" viewBox="16 136 460 184"><path fill="#0f2d4b" d="M361 178.8c11.3 4.6 14 13.4 12.4 22.6-1.5 8.5-9.5 15.9-19.1 16l-43.9.4v-74.9l43.6.5c8.4.1 15.4 7.5 16.7 13.2 2.2 10.1-.8 17.6-9.6 22.2Zm-13.1-5.6c5.8 0 8.1-5.5 7.8-9.2-.5-4.4-3.8-7.8-8.9-7.8h-20.5c-.5 6.8-.7 11.6.4 17.4l21.2-.3Zm.8 31.4c5.2 0 8.4-3.7 9-8.2.4-3.5-2.2-9.3-7.1-9.4l-23.8-.6c-1.2 6.7-.9 12.3 0 18.2h22Zm-84.2-25.5c9.8 5.1 12.8 13.1 11.3 22.3-1.4 8.6-9.4 16-19.4 16.1l-43.9.4v-75.1l43.4.4c8.2 0 15.2 6.2 17.2 13.1 2.4 8.1 1 16-8.6 22.8m-13.2-6.2c5.6-.2 7.5-6.8 6.4-10.5-1-3.5-4.4-6.2-8.9-6.2h-20.2l.2 17.3zm-.3 31.8c5.8 0 9.4-4.9 9.1-9.6-.3-4.6-3.7-8.6-9.1-8.6h-22.2v18H251Zm-72.3-24.3c0 21.8-17.7 39.5-39.5 39.5s-39.5-17.7-39.5-39.5 17.7-39.5 39.5-39.5 39.5 17.7 39.5 39.5m-16.4-.1c0-15.6-11.2-25.2-24.7-24.5-12.8.7-22 11.7-21.5 25.4.4 13.6 10.4 24.1 23.2 24.1s23-10.2 23-25m308.6-37.6-28 44.4-1.1 30.7-15.9-.3c-1.4-9.6 3.8-22.1-1.2-30.2l-27.6-44.4c5.9-.6 11.8-.4 17.9.4 6.1 10.1 11.5 19.6 19 29.8l19.2-29.9 17.8-.4ZM71.6 204.3V218H21.1v-75h15.8l-.1 61.1zM235.2 313l-30.9-39.6-.3 15.3v6l-.2 18-17.4.3-31-39.4-.3 39.2h-29.2c-3.2.3-6.3.2-9.1-.4 18.1-3.8 30.4-19.6 29.7-37.7-1.3-17.5-13.5-30.9-30.5-34.5l38-.2 29.8 38.1.4-38H203l29.6 37.9.3-37.9h97.8c-4.1 5.3-7.6 10.6-10.3 17h-67.5v55.7l-17.8.3Zm154.3-42.5c-4.2-9.7-12.8-14.7-22.1-12.9-9.1 1.8-15.9 9.9-15.8 19.2s7.1 17.3 16.2 18.8c9.3 1.6 17.9-4.1 21.5-12.8l14.2 14.1c-7.9 12.4-21.5 19.3-36.4 17.9-17.9-1.6-31.8-15.7-34.2-32.5-2.6-18.4 7.6-35.2 24.3-41.6s36.6-.1 46.4 15.6zm-314.1-5.2c-7.4-9.5-20.1-10.6-28.5-3.3-8.7 7.5-8.8 20.9-.4 28.6 8.5 7.8 21.4 6.6 28.8-3 2.7 6.5 5.5 11.7 11.1 16.3-15.1 14.9-39.4 14.4-54-.2-14.8-14.9-15.1-38.6-.6-53.8 14.3-15 38.7-16.2 54.5-1.1-4.9 4.7-8.6 9.7-10.8 16.5Z"/><path fill="#0f2d4b" d="M286 295.9h39v17h-26.8l-32.3-.1v-44.7h54.9l.2 16.1h-35zm162.9 16.8-20.1.4v-55.3l-10.8-.2c-2.6-6.6-6.3-11.7-11.4-17.5h64.3v17.5h-22z"/><circle cx="110" cy="276.5" r="19.9" fill="#06d6a0"/><circle cx="370.7" cy="276.8" r="19.6" fill="#06d6a0"/><path fill="#0f2d4b" stroke="#06d6a0" stroke-linecap="round" stroke-linejoin="round" stroke-width="9" d="M111.7 276.5h257.9"/></svg>