<svg xmlns="http://www.w3.org/2000/svg" viewBox="0 0 919.9 387.6"><path fill="#f4f7f7" d="M695.3 80.5c23 9.7 28.6 28 25.3 47.2-3 17.6-19.5 33.2-39.1 33.3l-89.8.8V5.5L681 6.6c17.1.2 31.5 15.6 34.1 27.5 4.6 21.2-1.7 36.7-19.7 46.3Zm-26.9-11.7c11.9-.2 16.7-11.5 15.9-19.2-.9-9.2-7.8-16.4-18.2-16.3h-41.9c-.9 14.3-1.4 24.3.8 36.2zm1.6 65.5c10.5 0 17.3-7.8 18.3-17.1.8-7.4-4.5-19.5-14.6-19.7L625 96.3c-2.5 14-1.9 25.6 0 37.9h45ZM497.8 81.1c20 10.6 26.3 27.2 23.1 46.5-2.9 17.9-19.2 33.5-39.7 33.7l-89.7.9V5.5c-.1 0 88.7.9 88.7.9 16.9.2 31 12.9 35.2 27.2 4.9 16.9 2 33.3-17.6 47.5m-26.8-13c11.4-.3 15.2-14.3 13.1-22-2-7.3-9.1-12.9-18.2-12.9h-41.3c0 .1.5 36.2.5 36.2l46-1.3Zm-.7 66.3c11.9 0 19.2-10.1 18.6-19.9-.6-9.5-7.6-17.9-18.6-17.9l-45.3.2v37.4zM322.4 83c0 45.9-36.1 83-80.7 83S161 128.8 161 83s36.1-83 80.7-83 80.7 37.2 80.7 83m-33.5-.3c0-32.8-22.9-53-50.6-51.5-26.2 1.4-44.9 24.6-44 53.4.9 28.7 21.3 50.7 47.5 50.6 26.4-.2 47.1-21.5 47.1-52.5m631-77.5-57.7 93.1-1.4 63.7-32.1-.2c0-20.3-.6-64.7-.6-63.5L768.2 5.1c11.8.2 23.3.5 36.6 1 12.4 20.9 24.3 41.6 39.6 62.8l39.7-62.8 35.9-.9ZM103.4 133.7v28.5H.1L0 5.6l32.3-.1-.2 127.8zM438 387.6 374.7 305l-.7 31.9v12.6l-.3 38.2h-35.6l-63.3-82.2-.7 81.7h-59.7c-6.5.7-12.9.5-18.6-.9 36.9-7.9 62.1-40.9 60.7-78.7-2.7-36.6-27.6-64.4-62.5-71.9l77.8-.5 61 79.4.8-79.2h38.3l60.6 79 .7-79h200.1c-8.3 11-15.5 22.1-21.1 35.4h-138v116.8h-36.3Zm315.5-90.4c-8.6-19.7-26.3-29.8-45.1-26.2-18.6 3.6-32.5 20.1-32.3 39 .2 19 14.5 35.1 33.2 38.2 18.9 3.2 36.6-8.3 43.9-26.1l29 28.7c-16.2 25.2-44 39.1-74.5 36.4-36.6-3.3-65.1-32-69.9-66.1-5.3-37.4 15.6-71.5 49.6-84.6 35.1-13.4 74.8-.3 95 31.7zm-642.3-10.4C96 267.5 70.1 265.2 52.8 280c-17.8 15.3-18 42.5-.8 58.3 17.3 15.8 43.8 13.5 58.8-6 5.5 13.2 11.3 23.7 22.7 33.1-30.8 30.3-80.6 29.3-110.5-.5-30.3-30.2-30.9-78.4-1.2-109.4 29.3-30.6 79.1-32.9 111.4-2.3-10 9.7-17.6 19.8-22.2 33.7Z"/><path fill="#f4f7f7" d="M541.9 350.2h79.7v37.4H500.7l.1-95.2 112.2-.1.4 33.6-71.5.1zm333 36.6-41.2.8V272.4c-.1 0-22.2-.5-22.2-.5-5.4-13.9-12.9-24.4-23.2-36.4h131.5v36.6l-44.9.2v114.6Z"/><ellipse cx="182" cy="309.5" fill="#06d6a0" rx="40.6" ry="40.4"/><ellipse cx="715" cy="310.1" fill="#06d6a0" rx="40" ry="39.8"/><path fill="#0f2d4b" stroke="#06d6a0" stroke-linecap="round" stroke-linejoin="round" stroke-width="18.4" d="M181.2 310.9h527.3"/></svg>