<svg xmlns="http://www.w3.org/2000/svg" viewBox="0 0 938.3 395.4"><path fill="#0f2d4b" d="M709.2 82.1c23.5 9.9 29.2 28.5 25.8 48.2-3.1 18-19.9 33.8-39.9 34l-91.6.8V5.6l91 1.2c17.4.2 32.1 15.9 34.8 28.1 4.7 21.6-1.7 37.4-20.1 47.2m-27.5-11.9c12.1-.2 17-11.7 16.2-19.6-.9-9.4-7.9-16.7-18.6-16.7h-42.7c-1 14.6-1.5 24.7.9 36.9l44.2-.7Zm1.7 66.8c10.8 0 17.6-7.9 18.7-17.5.9-7.5-4.6-19.9-14.9-20.1l-49.7-1.2c-2.6 14.3-1.9 26.1 0 38.7h45.9ZM507.7 82.7c20.4 10.8 26.8 27.8 23.6 47.4-3 18.2-19.6 34.1-40.5 34.3l-91.5.9V5.6l90.5.9c17.2.2 31.7 13.1 35.9 27.8 5 17.2 2 34-17.9 48.4Zm-27.3-13.2c11.6-.3 15.5-14.6 13.4-22.4-2-7.5-9.2-13.1-18.6-13.1H433c0 .1.5 36.9.5 36.9l46.9-1.3Zm-.7 67.6c12.1 0 19.6-10.3 19-20.3-.6-9.7-7.7-18.3-18.9-18.2l-46.2.2v38.1l46.2.2ZM328.9 84.7c0 46.8-36.9 84.7-82.3 84.7s-82.3-37.9-82.3-84.7S201.1 0 246.5 0s82.3 37.9 82.3 84.7Zm-34.2-.4c0-33.4-23.3-54-51.6-52.5-26.8 1.4-45.8 25.1-44.9 54.5.9 29.3 21.7 51.8 48.5 51.6 26.9-.2 48.1-21.9 48-53.6m643.6-79-58.9 95-1.4 65-32.8-.2c0-20.7-.6-66-.6-64.7l-61.1-95c12.1.2 23.7.5 37.3 1 12.7 21.3 24.7 42.5 40.4 64.1l40.4-64.1 36.6-1Zm-832.8 131v29.1l-105.4.1L0 5.7l33-.1-.2 130.3zm341.2 259L382.2 311l-.7 32.5v12.8l-.4 39h-36.3l-64.6-83.8-.7 83.3h-60.9c-6.6.7-13.1.5-19-.9 37.7-8.1 63.3-41.7 62-80.3-2.7-37.3-28.2-65.7-63.7-73.3l79.4-.5 62.2 81 .8-80.8h39.1l61.8 80.5.7-80.6H646c-8.5 11.2-15.8 22.6-21.5 36.1H483.7v119.1h-37Zm321.9-92.2c-8.8-20.1-26.8-30.4-46.1-26.7-19 3.6-33.2 20.5-33 39.8.2 19.4 14.8 35.8 33.9 39 19.3 3.2 37.3-8.5 44.8-26.6l29.6 29.3c-16.5 25.7-44.9 39.9-76 37.1-37.3-3.4-66.4-32.6-71.3-67.5-5.4-38.2 15.9-73 50.6-86.3 35.8-13.7 76.3-.3 96.9 32.4l-29.5 29.5Zm-655.2-10.6c-15.5-19.7-41.9-22.1-59.5-6.9-18.2 15.7-18.3 43.4-.8 59.4 17.7 16.1 44.7 13.7 60-6.2 5.6 13.5 11.5 24.2 23.2 33.7-31.5 30.9-82.2 29.9-112.7-.5-30.9-30.8-31.5-80-1.2-111.6 29.9-31.2 80.7-33.5 113.7-2.4-10.2 9.8-17.9 20.2-22.6 34.3Z"/><path fill="#0f2d4b" d="M552.7 357.2H634v38.2H510.8v-97.2h114.5l.3 34.3h-72.9zm339.7 37.4-42 .8V277.9c-.1 0-22.6-.5-22.6-.5-5.5-14.1-13.1-24.9-23.7-37.2h134.2v37.3l-45.8.2v116.9Z"/><ellipse cx="185.6" cy="315.7" fill="#06d6a0" rx="41.4" ry="41.2"/><ellipse cx="729.3" cy="316.3" fill="#06d6a0" rx="40.8" ry="40.6"/><path fill="#0f2d4b" stroke="#06d6a0" stroke-linecap="round" stroke-linejoin="round" stroke-width="18.7" d="M174.7 315.6h537.8"/></svg>